<svg width="51" height="42" viewBox="0 0 51 42" fill="none" xmlns="http://www.w3.org/2000/svg">
<g id="Logo">
<path id="G" d="M18.3452 13.0722H22.4V21.3728C20.1254 23.9242 16.8618 25.2 12.6093 25.2C9.01603 25.2 6.01618 24.0071 3.60971 21.6213C1.20324 19.2355 0 16.2532 0 12.6745C0 9.09585 1.21972 6.09703 3.65916 3.6781C6.13156 1.22603 9.11493 0 12.6093 0C16.1036 0 19.0045 1.01065 21.3121 3.03195L19.1364 6.16331C17.4552 4.73846 15.3948 4.02603 12.9554 4.02603C10.483 4.02603 8.40617 4.83786 6.72494 6.46153C5.07667 8.05206 4.25254 10.1231 4.25254 12.6745C4.25254 15.226 5.0437 17.297 6.62604 18.8876C8.24135 20.445 10.2358 21.2236 12.6093 21.2236C14.9168 21.2236 16.8288 20.7266 18.3452 19.7325V13.0722Z" fill="#161C24"/>
<line id="Line 1" x1="27.0996" y1="2.18557e-08" x2="27.0996" y2="16.8" stroke="#161C24"/>
<line id="Line 2" x1="27.0996" y1="16.8008" x2="27.0996" y2="33.6008" stroke="#4295E4"/>
<path id="s" d="M41.4202 42.0008C37.4871 42.0008 33.9473 40.7758 30.8008 38.3258L33.2917 34.3226C36.0886 36.4664 38.8418 37.5383 41.5513 37.5383C42.6875 37.5383 43.5834 37.2758 44.2389 36.7508C44.9381 36.182 45.2877 35.482 45.2877 34.6508C45.2877 33.4258 43.6708 32.332 40.4369 31.3695C40.3495 31.3258 40.2402 31.282 40.1091 31.2383C40.0217 31.1945 39.9562 31.1726 39.9125 31.1726C34.8431 29.8164 32.3085 27.5195 32.3085 24.282C32.3085 22.007 33.1606 20.1914 34.865 18.8352C36.613 17.4789 38.9074 16.8008 41.7479 16.8008C44.5448 16.8008 47.2106 17.632 49.7452 19.2945L47.8442 23.1008C45.8777 21.7883 43.7145 21.132 41.3546 21.132C38.6014 21.132 37.2249 22.007 37.2249 23.757C37.2249 24.5008 37.4871 25.0476 38.0115 25.3976C38.5796 25.7039 39.4973 26.0101 40.7647 26.3164C42.6875 26.8414 44.3045 27.3664 45.6155 27.8914C46.4895 28.2851 47.2543 28.7008 47.9098 29.1383C49.5704 30.2758 50.4008 32.0039 50.4008 34.3226C50.4008 36.5976 49.5486 38.457 47.8442 39.9008C46.1836 41.3008 44.0422 42.0008 41.4202 42.0008Z" fill="#4295E4"/>
</g>
</svg>
